<svg width="116" height="30" viewBox="0 0 116 30" fill="none" xmlns="http://www.w3.org/2000/svg">
<path d="M44.1546 0.850006H45.5668C51.005 1.13001 55.2714 2.58001 57.9755 5.57001C60.7197 2.57001 64.9862 1.11001 70.4544 0.850006H71.8065C83.9348 1.67001 89.4632 10.35 99.1479 14.04C100.653 14.7233 102.292 15.0648 103.945 15.04C106.429 14.77 108.011 12.26 107.691 9.46001C107.35 6.46001 104.406 3.85 101.121 5.29C100.69 5.49199 100.294 5.76214 99.9491 6.09C99.6987 6.32 99.4183 6.92 98.7773 6.7C98.1764 6.2 98.7773 5.47001 99.0878 5.05001C99.6808 3.997 100.578 3.14725 101.663 2.61198C102.748 2.07671 103.969 1.88085 105.167 2.05001C110.806 2.45001 115.853 7.39 114.992 14.87C113.069 26 102.873 29 90.7852 30H86.8492C76.3001 29.5699 66.1813 25.7069 58.0356 19C49.8297 25.6899 39.6759 29.5488 29.0918 30H25.226C13.0475 28.93 2.75194 26 0.959228 14.54C0.278197 6.38 5.14556 2.37001 10.7941 1.96001C12.002 1.78859 13.2337 1.98283 14.3299 2.51763C15.4261 3.05243 16.3365 3.9032 16.9434 4.96001C17.2238 5.42001 17.7446 6.13 17.2539 6.68C16.643 6.79 16.3425 6.31001 16.0821 6.07001C15.716 5.68901 15.2779 5.38415 14.7931 5.17304C14.3084 4.96193 13.7866 4.84874 13.2579 4.84C9.392 4.7 7.16862 8.99 8.71096 12.45C9.01332 13.1214 9.48176 13.7049 10.0722 14.1458C10.6626 14.5866 11.3556 14.8702 12.0861 14.97C13.7382 14.9814 15.3737 14.6404 16.8833 13.97C18.2299 13.4544 19.5271 12.8185 20.7592 12.07C28.1203 7.81001 33.8791 1.76001 44.1546 0.850006V0.850006Z" fill="white"/>
</svg>
